<svg width="265" height="99" viewBox="0 0 265 99" fill="none" xmlns="http://www.w3.org/2000/svg">
<path d="M7.45455 1.18182H17.5455L41.2727 59.1364H42.0909L65.8182 1.18182H75.9091V71H68V17.9545H67.3182L45.5 71H37.8636L16.0455 17.9545H15.3636V71H7.45455V1.18182ZM131.043 18.6364C130.634 15.1818 128.974 12.5 126.065 10.5909C123.156 8.68182 119.588 7.72727 115.361 7.72727C112.27 7.72727 109.565 8.22727 107.247 9.22727C104.952 10.2273 103.156 11.6023 101.861 13.3523C100.588 15.1023 99.9517 17.0909 99.9517 19.3182C99.9517 21.1818 100.395 22.7841 101.281 24.125C102.19 25.4432 103.349 26.5455 104.759 27.4318C106.168 28.2955 107.645 29.0114 109.19 29.5795C110.736 30.125 112.156 30.5682 113.452 30.9091L120.543 32.8182C122.361 33.2955 124.384 33.9545 126.611 34.7955C128.861 35.6364 131.009 36.7841 133.054 38.2386C135.122 39.6705 136.827 41.5114 138.168 43.7614C139.509 46.0114 140.179 48.7727 140.179 52.0455C140.179 55.8182 139.19 59.2273 137.213 62.2727C135.259 65.3182 132.395 67.7386 128.622 69.5341C124.872 71.3295 120.315 72.2273 114.952 72.2273C109.952 72.2273 105.622 71.4205 101.963 69.8068C98.3267 68.1932 95.4631 65.9432 93.3722 63.0568C91.304 60.1705 90.1335 56.8182 89.8608 53H98.5881C98.8153 55.6364 99.7017 57.8182 101.247 59.5455C102.815 61.25 104.793 62.5227 107.179 63.3636C109.588 64.1818 112.179 64.5909 114.952 64.5909C118.179 64.5909 121.077 64.0682 123.645 63.0227C126.213 61.9545 128.247 60.4773 129.747 58.5909C131.247 56.6818 131.997 54.4545 131.997 51.9091C131.997 49.5909 131.349 47.7045 130.054 46.25C128.759 44.7955 127.054 43.6136 124.94 42.7045C122.827 41.7955 120.543 41 118.088 40.3182L109.497 37.8636C104.043 36.2955 99.7244 34.0568 96.5426 31.1477C93.3608 28.2386 91.7699 24.4318 91.7699 19.7273C91.7699 15.8182 92.8267 12.4091 94.9403 9.5C97.0767 6.56818 99.9403 4.29545 103.531 2.68182C107.145 1.04545 111.179 0.22727 115.634 0.22727C120.134 0.22727 124.134 1.03409 127.634 2.64772C131.134 4.23863 133.906 6.42045 135.952 9.19318C138.02 11.9659 139.111 15.1136 139.224 18.6364H131.043ZM201.807 23C201.057 20.7045 200.068 18.6477 198.841 16.8295C197.636 14.9886 196.193 13.4205 194.511 12.125C192.852 10.8295 190.966 9.84091 188.852 9.15909C186.739 8.47727 184.42 8.13636 181.898 8.13636C177.761 8.13636 174 9.20454 170.614 11.3409C167.227 13.4773 164.534 16.625 162.534 20.7841C160.534 24.9432 159.534 30.0455 159.534 36.0909C159.534 42.1364 160.545 47.2386 162.568 51.3977C164.591 55.5568 167.33 58.7045 170.784 60.8409C174.239 62.9773 178.125 64.0455 182.443 64.0455C186.443 64.0455 189.966 63.1932 193.011 61.4886C196.08 59.7614 198.466 57.3295 200.17 54.1932C201.898 51.0341 202.761 47.3182 202.761 43.0455L205.352 43.5909H184.352V36.0909H210.943V43.5909C210.943 49.3409 209.716 54.3409 207.261 58.5909C204.83 62.8409 201.466 66.1364 197.17 68.4773C192.898 70.7955 187.989 71.9545 182.443 71.9545C176.261 71.9545 170.83 70.5 166.148 67.5909C161.489 64.6818 157.852 60.5455 155.239 55.1818C152.648 49.8182 151.352 43.4545 151.352 36.0909C151.352 30.5682 152.091 25.6023 153.568 21.1932C155.068 16.7614 157.182 12.9886 159.909 9.875C162.636 6.76136 165.864 4.375 169.591 2.71591C173.318 1.05682 177.42 0.22727 181.898 0.22727C185.58 0.22727 189.011 0.784088 192.193 1.89772C195.398 2.98863 198.25 4.54545 200.75 6.56818C203.273 8.56818 205.375 10.9659 207.057 13.7614C208.739 16.5341 209.898 19.6136 210.534 23H201.807ZM230.332 18.6364L242.878 40.0455L255.423 18.6364H264.696L247.787 44.8182L264.696 71H255.423L242.878 50.6818L230.332 71H221.06L237.696 44.8182L221.06 18.6364H230.332Z" fill="#333333"/>
<path d="M8.71591 87.0909C8.63068 86.3712 8.28504 85.8125 7.67898 85.4148C7.07292 85.017 6.32955 84.8182 5.44886 84.8182C4.80492 84.8182 4.24148 84.9223 3.75852 85.1307C3.2803 85.339 2.90625 85.6255 2.63636 85.9901C2.37121 86.3546 2.23864 86.7689 2.23864 87.233C2.23864 87.6212 2.33097 87.955 2.51562 88.2344C2.70502 88.509 2.9465 88.7386 3.24006 88.9233C3.53362 89.1032 3.84138 89.2524 4.16335 89.3707C4.48532 89.4844 4.78125 89.5767 5.05114 89.6477L6.52841 90.0455C6.9072 90.1449 7.3286 90.2822 7.79261 90.4574C8.26136 90.6326 8.70881 90.8717 9.13494 91.1747C9.56581 91.473 9.92093 91.8565 10.2003 92.3253C10.4796 92.794 10.6193 93.3693 10.6193 94.0511C10.6193 94.8371 10.4134 95.5473 10.0014 96.1818C9.59422 96.8163 8.99763 97.3205 8.21165 97.6946C7.4304 98.0687 6.48106 98.2557 5.36364 98.2557C4.32197 98.2557 3.41998 98.0876 2.65767 97.7514C1.90009 97.4152 1.3035 96.9465 0.867898 96.3452C0.437027 95.7438 0.193182 95.0455 0.136364 94.25H1.95455C2.00189 94.7992 2.18655 95.2538 2.50852 95.6136C2.83523 95.9687 3.24716 96.2339 3.74432 96.4091C4.24621 96.5795 4.78598 96.6648 5.36364 96.6648C6.03598 96.6648 6.63968 96.5559 7.17472 96.3381C7.70975 96.1155 8.13352 95.8078 8.44602 95.4148C8.75852 95.017 8.91477 94.553 8.91477 94.0227C8.91477 93.5398 8.77983 93.1468 8.50994 92.8438C8.24006 92.5407 7.88494 92.2945 7.4446 92.1051C7.00426 91.9157 6.52841 91.75 6.01705 91.608L4.22727 91.0966C3.09091 90.7699 2.19129 90.3035 1.52841 89.6974C0.86553 89.0914 0.534091 88.2983 0.534091 87.3182C0.534091 86.5038 0.754261 85.7936 1.1946 85.1875C1.63968 84.5767 2.23627 84.1032 2.98438 83.767C3.73722 83.4261 4.57765 83.2557 5.50568 83.2557C6.44318 83.2557 7.27652 83.4238 8.00568 83.7599C8.73485 84.0914 9.3125 84.5459 9.73864 85.1236C10.1695 85.7012 10.3968 86.357 10.4205 87.0909H8.71591ZM17.8619 98.2273C16.8107 98.2273 15.904 97.9953 15.1417 97.5312C14.3841 97.0625 13.7994 96.4091 13.3874 95.571C12.9802 94.7282 12.7766 93.7481 12.7766 92.6307C12.7766 91.5133 12.9802 90.5284 13.3874 89.6761C13.7994 88.8191 14.3723 88.1515 15.1062 87.6733C15.8448 87.1903 16.7066 86.9489 17.6914 86.9489C18.2596 86.9489 18.8207 87.0436 19.3746 87.233C19.9286 87.4223 20.4329 87.7301 20.8874 88.1562C21.342 88.5777 21.7042 89.1364 21.9741 89.8324C22.244 90.5284 22.3789 91.3854 22.3789 92.4034V93.1136H13.9698V91.6648H20.6744C20.6744 91.0492 20.5513 90.5 20.305 90.017C20.0636 89.5341 19.7179 89.1529 19.2681 88.8736C18.823 88.5942 18.2975 88.4545 17.6914 88.4545C17.0238 88.4545 16.4461 88.6203 15.9585 88.9517C15.4755 89.2784 15.1038 89.7045 14.8434 90.2301C14.583 90.7557 14.4528 91.3191 14.4528 91.9205V92.8864C14.4528 93.7102 14.5948 94.4086 14.8789 94.9815C15.1677 95.5497 15.5678 95.983 16.0792 96.2812C16.5906 96.5748 17.1848 96.7216 17.8619 96.7216C18.3022 96.7216 18.6999 96.66 19.055 96.5369C19.4149 96.4091 19.725 96.2197 19.9854 95.9688C20.2459 95.7131 20.4471 95.3958 20.5891 95.017L22.2085 95.4716C22.038 96.0208 21.7515 96.5038 21.3491 96.9205C20.9466 97.3324 20.4495 97.6544 19.8576 97.8864C19.2657 98.1136 18.6005 98.2273 17.8619 98.2273ZM29.3604 98.2273C28.3377 98.2273 27.457 97.9858 26.7184 97.5028C25.9798 97.0199 25.4116 96.3546 25.0138 95.5071C24.6161 94.6596 24.4173 93.6913 24.4173 92.6023C24.4173 91.4943 24.6209 90.5166 25.0281 89.669C25.44 88.8168 26.0129 88.1515 26.7468 87.6733C27.4854 87.1903 28.3472 86.9489 29.332 86.9489C30.0991 86.9489 30.7904 87.0909 31.4059 87.375C32.0214 87.6591 32.5257 88.0568 32.9187 88.5682C33.3117 89.0795 33.5555 89.6761 33.6502 90.358H31.9741C31.8462 89.8608 31.5621 89.4205 31.1218 89.0369C30.6862 88.6487 30.0991 88.4545 29.3604 88.4545C28.707 88.4545 28.1341 88.625 27.6417 88.9659C27.154 89.3021 26.7728 89.7779 26.4982 90.3935C26.2283 91.0043 26.0934 91.7216 26.0934 92.5455C26.0934 93.3883 26.226 94.1222 26.4911 94.7472C26.761 95.3722 27.1398 95.8575 27.6275 96.2031C28.1199 96.5488 28.6976 96.7216 29.3604 96.7216C29.796 96.7216 30.1914 96.6458 30.5465 96.4943C30.9016 96.3428 31.2023 96.125 31.4485 95.8409C31.6947 95.5568 31.8699 95.2159 31.9741 94.8182H33.6502C33.5555 95.4621 33.3211 96.0421 32.9471 96.5582C32.5778 97.0696 32.0877 97.4768 31.4769 97.7798C30.8709 98.0781 30.1654 98.2273 29.3604 98.2273ZM42.9755 93.5398V87.0909H44.6516V98H42.9755V96.1534H42.8619C42.6062 96.7074 42.2085 97.1785 41.6687 97.5668C41.1289 97.9503 40.4471 98.142 39.6232 98.142C38.9414 98.142 38.3353 97.9929 37.805 97.6946C37.2747 97.3916 36.8581 96.937 36.555 96.331C36.252 95.7202 36.1005 94.9508 36.1005 94.0227V87.0909H37.7766V93.9091C37.7766 94.7045 37.9992 95.339 38.4442 95.8125C38.8941 96.286 39.467 96.5227 40.163 96.5227C40.5797 96.5227 41.0034 96.4162 41.4343 96.2031C41.8699 95.9901 42.2345 95.6634 42.5281 95.223C42.8263 94.7827 42.9755 94.2216 42.9755 93.5398ZM47.7216 98V87.0909H49.3409V88.7386H49.4545C49.6534 88.1989 50.0133 87.7609 50.5341 87.4247C51.0549 87.0885 51.642 86.9205 52.2955 86.9205C52.4186 86.9205 52.5724 86.9228 52.7571 86.9276C52.9418 86.9323 53.0814 86.9394 53.1761 86.9489V88.6534C53.1193 88.6392 52.9891 88.6179 52.7855 88.5895C52.5866 88.5563 52.3759 88.5398 52.1534 88.5398C51.6231 88.5398 51.1496 88.651 50.733 88.8736C50.321 89.0914 49.9943 89.3944 49.7528 89.7827C49.5161 90.1662 49.3977 90.6042 49.3977 91.0966V98H47.7216ZM59.4048 98.2273C58.3537 98.2273 57.447 97.9953 56.6847 97.5312C55.9271 97.0625 55.3423 96.4091 54.9304 95.571C54.5232 94.7282 54.3196 93.7481 54.3196 92.6307C54.3196 91.5133 54.5232 90.5284 54.9304 89.6761C55.3423 88.8191 55.9152 88.1515 56.6491 87.6733C57.3878 87.1903 58.2495 86.9489 59.2344 86.9489C59.8026 86.9489 60.3636 87.0436 60.9176 87.233C61.4716 87.4223 61.9759 87.7301 62.4304 88.1562C62.8849 88.5777 63.2472 89.1364 63.517 89.8324C63.7869 90.5284 63.9219 91.3854 63.9219 92.4034V93.1136H55.5128V91.6648H62.2173C62.2173 91.0492 62.0942 90.5 61.848 90.017C61.6065 89.5341 61.2609 89.1529 60.8111 88.8736C60.366 88.5942 59.8404 88.4545 59.2344 88.4545C58.5668 88.4545 57.9891 88.6203 57.5014 88.9517C57.0185 89.2784 56.6468 89.7045 56.3864 90.2301C56.1259 90.7557 55.9957 91.3191 55.9957 91.9205V92.8864C55.9957 93.7102 56.1378 94.4086 56.4219 94.9815C56.7107 95.5497 57.1108 95.983 57.6222 96.2812C58.1335 96.5748 58.7277 96.7216 59.4048 96.7216C59.8452 96.7216 60.2429 96.66 60.598 96.5369C60.9579 96.4091 61.268 96.2197 61.5284 95.9688C61.7888 95.7131 61.9901 95.3958 62.1321 95.017L63.7514 95.4716C63.581 96.0208 63.2945 96.5038 62.892 96.9205C62.4896 97.3324 61.9924 97.6544 61.4006 97.8864C60.8087 98.1136 60.1435 98.2273 59.4048 98.2273ZM76.2159 98.1989C75.2595 98.1989 74.4356 98.0237 73.7443 97.6733C73.053 97.3229 72.5204 96.8423 72.1463 96.2315C71.7723 95.6207 71.5852 94.9223 71.5852 94.1364C71.5852 93.5303 71.7131 92.9929 71.9688 92.5241C72.2292 92.0507 72.5866 91.6127 73.0412 91.2102C73.5005 90.803 74.0284 90.3958 74.625 89.9886L76.7273 88.4261C77.1392 88.1562 77.4683 87.8674 77.7145 87.5597C77.9654 87.2519 78.0909 86.8494 78.0909 86.3523C78.0909 85.983 77.9276 85.6255 77.6009 85.2798C77.2789 84.9342 76.8551 84.7614 76.3295 84.7614C75.9602 84.7614 75.6335 84.8561 75.3494 85.0455C75.0701 85.2301 74.8499 85.4669 74.6889 85.7557C74.5327 86.0398 74.4545 86.3333 74.4545 86.6364C74.4545 86.9773 74.5469 87.3229 74.7315 87.6733C74.9209 88.0189 75.16 88.3741 75.4489 88.7386C75.7424 89.0985 76.0455 89.4678 76.358 89.8466L83.0341 98H81.017L75.5057 91.3523C74.9943 90.7367 74.5303 90.178 74.1136 89.6761C73.697 89.1742 73.3655 88.6795 73.1193 88.1918C72.8731 87.7041 72.75 87.1761 72.75 86.608C72.75 85.9545 72.8944 85.3816 73.1832 84.8892C73.4768 84.392 73.8864 84.0062 74.4119 83.7315C74.9422 83.4522 75.5625 83.3125 76.2727 83.3125C77.0019 83.3125 77.6293 83.4545 78.1548 83.7386C78.6804 84.018 79.0852 84.3897 79.3693 84.8537C79.6534 85.313 79.7955 85.8125 79.7955 86.3523C79.7955 87.0483 79.6226 87.652 79.277 88.1634C78.9313 88.6747 78.4602 89.1506 77.8636 89.5909L74.9659 91.75C74.3125 92.233 73.8698 92.7017 73.6378 93.1562C73.4058 93.6108 73.2898 93.9375 73.2898 94.1364C73.2898 94.5909 73.4081 95.0147 73.6449 95.4077C73.8816 95.8007 74.2154 96.1179 74.6463 96.3594C75.0772 96.6009 75.5814 96.7216 76.1591 96.7216C76.7083 96.7216 77.2434 96.6056 77.7642 96.3736C78.285 96.1368 78.7562 95.7959 79.1776 95.3509C79.6037 94.9058 79.9399 94.3707 80.1861 93.7457C80.437 93.1207 80.5625 92.4176 80.5625 91.6364H82.1818C82.1818 92.6023 82.0705 93.3906 81.848 94.0014C81.6255 94.6122 81.3745 95.0904 81.0952 95.4361C80.8158 95.7817 80.5909 96.0398 80.4205 96.2102C80.3636 96.2812 80.3116 96.3523 80.2642 96.4233C80.2169 96.4943 80.1648 96.5653 80.108 96.6364C79.6392 97.1619 79.0473 97.5549 78.3324 97.8153C77.6174 98.071 76.9119 98.1989 76.2159 98.1989ZM90.7418 98V83.4545H99.4634V85.017H92.5032V89.9318H98.81V91.4943H92.5032V98H90.7418ZM105.463 98.2557C104.772 98.2557 104.144 98.1255 103.581 97.8651C103.018 97.5999 102.57 97.2188 102.239 96.7216C101.907 96.2197 101.741 95.6136 101.741 94.9034C101.741 94.2784 101.865 93.7718 102.111 93.3835C102.357 92.9905 102.686 92.6828 103.098 92.4602C103.51 92.2377 103.964 92.072 104.462 91.9631C104.964 91.8494 105.468 91.7595 105.974 91.6932C106.637 91.608 107.175 91.544 107.587 91.5014C108.003 91.4541 108.306 91.3759 108.496 91.267C108.69 91.1581 108.787 90.9687 108.787 90.6989V90.642C108.787 89.9413 108.595 89.3968 108.212 89.0085C107.833 88.6203 107.258 88.4261 106.486 88.4261C105.686 88.4261 105.058 88.6013 104.604 88.9517C104.149 89.3021 103.83 89.6761 103.645 90.0739L102.054 89.5057C102.338 88.8428 102.717 88.3267 103.19 87.9574C103.669 87.5833 104.189 87.3229 104.753 87.1761C105.321 87.0246 105.88 86.9489 106.429 86.9489C106.779 86.9489 107.182 86.9915 107.636 87.0767C108.096 87.1572 108.538 87.3253 108.964 87.581C109.395 87.8366 109.753 88.2225 110.037 88.7386C110.321 89.2547 110.463 89.946 110.463 90.8125V98H108.787V96.5227H108.702C108.588 96.7595 108.399 97.0128 108.134 97.2827C107.868 97.5526 107.516 97.7822 107.075 97.9716C106.635 98.161 106.098 98.2557 105.463 98.2557ZM105.719 96.75C106.382 96.75 106.94 96.6198 107.395 96.3594C107.854 96.099 108.2 95.7628 108.432 95.3509C108.669 94.9389 108.787 94.5057 108.787 94.0511V92.517C108.716 92.6023 108.56 92.6804 108.318 92.7514C108.081 92.8177 107.807 92.8769 107.494 92.929C107.187 92.9763 106.886 93.0189 106.592 93.0568C106.304 93.09 106.069 93.1184 105.889 93.142C105.454 93.1989 105.046 93.2912 104.668 93.419C104.294 93.5421 103.991 93.7292 103.759 93.9801C103.531 94.2263 103.418 94.5625 103.418 94.9886C103.418 95.571 103.633 96.0114 104.064 96.3097C104.5 96.6032 105.051 96.75 105.719 96.75ZM121.25 89.5341L119.744 89.9602C119.649 89.7093 119.51 89.4654 119.325 89.2287C119.145 88.9872 118.899 88.7884 118.586 88.6321C118.274 88.4759 117.874 88.3977 117.386 88.3977C116.718 88.3977 116.162 88.5516 115.717 88.8594C115.277 89.1624 115.056 89.5483 115.056 90.017C115.056 90.4337 115.208 90.7628 115.511 91.0043C115.814 91.2457 116.288 91.447 116.931 91.608L118.551 92.0057C119.526 92.2424 120.253 92.6046 120.731 93.0923C121.209 93.5753 121.449 94.1979 121.449 94.9602C121.449 95.5852 121.269 96.1439 120.909 96.6364C120.554 97.1288 120.056 97.517 119.417 97.8011C118.778 98.0852 118.035 98.2273 117.187 98.2273C116.074 98.2273 115.154 97.9858 114.424 97.5028C113.695 97.0199 113.234 96.3144 113.039 95.3864L114.63 94.9886C114.782 95.5758 115.068 96.0161 115.49 96.3097C115.916 96.6032 116.472 96.75 117.159 96.75C117.94 96.75 118.56 96.5843 119.02 96.2528C119.484 95.9167 119.716 95.5142 119.716 95.0455C119.716 94.6667 119.583 94.3494 119.318 94.0938C119.053 93.8333 118.645 93.6392 118.096 93.5114L116.278 93.0852C115.279 92.8485 114.545 92.4815 114.076 91.9844C113.612 91.4825 113.38 90.8551 113.38 90.1023C113.38 89.4867 113.553 88.9422 113.899 88.4688C114.249 87.9953 114.725 87.6236 115.326 87.3537C115.932 87.0838 116.619 86.9489 117.386 86.9489C118.466 86.9489 119.313 87.1856 119.929 87.6591C120.549 88.1326 120.989 88.7576 121.25 89.5341ZM128.716 87.0909V88.5114H123.062V87.0909H128.716ZM124.71 84.4773H126.386V94.875C126.386 95.3485 126.455 95.7036 126.592 95.9403C126.734 96.1723 126.914 96.3286 127.132 96.4091C127.355 96.4848 127.589 96.5227 127.835 96.5227C128.02 96.5227 128.171 96.5133 128.29 96.4943C128.408 96.4706 128.503 96.4517 128.574 96.4375L128.915 97.9432C128.801 97.9858 128.643 98.0284 128.439 98.071C128.235 98.1184 127.977 98.142 127.665 98.142C127.191 98.142 126.727 98.0402 126.273 97.8366C125.823 97.633 125.449 97.3229 125.151 96.9062C124.857 96.4896 124.71 95.964 124.71 95.3295V84.4773Z" fill="#333333"/>
</svg>
